<?xml version="1.0" encoding="UTF-8"?>
<svg width="554px" height="278px" viewBox="0 0 554 278" version="1.1" xmlns="http://www.w3.org/2000/svg" xmlns:xlink="http://www.w3.org/1999/xlink">
    <title>ill Identity</title>
    <g id="Homepage" stroke="none" stroke-width="1" fill="none" fill-rule="evenodd">
        <g id="Publisher-2021-" transform="translate(-736.000000, -2321.000000)">
            <g id="Group-4" transform="translate(150.000000, 2278.000000)">
                <g id="ill-Identity" transform="translate(587.000000, 44.000000)">
                    <path d="M276,138 C276,214.2151 214.2155,276 137.999742,276 C61.7844998,276 0,214.2151 0,138 C0,61.7848997 61.7844998,0 137.999742,0 C214.2155,0 276,61.7848997 276,138 Z" id="Stroke-1" stroke="#000000" opacity="0.200000003"></path>
                    <path d="M306,138 C306,214.2151 244.2155,276 167.999742,276 C91.7844998,276 30,214.2151 30,138 C30,61.7848997 91.7844998,0 167.999742,0 C244.2155,0 306,61.7848997 306,138 Z" id="Stroke-3" stroke="#001A00" opacity="0.300000012"></path>
                    <path d="M336,138 C336,214.2151 274.2155,276 197.999742,276 C121.7845,276 60,214.2151 60,138 C60,61.7848997 121.7845,0 197.999742,0 C274.2155,0 336,61.7848997 336,138 Z" id="Stroke-5" stroke="#003300" opacity="0.400000006"></path>
                    <path d="M367,138 C367,214.2151 305.2155,276 228.999742,276 C152.7845,276 91,214.2151 91,138 C91,61.7848997 152.7845,0 228.999742,0 C305.2155,0 367,61.7848997 367,138 Z" id="Stroke-7" stroke="#004D00" opacity="0.5"></path>
                    <path d="M398,138 C398,214.2151 336.2155,276 259.999742,276 C183.7845,276 122,214.2151 122,138 C122,61.7848997 183.7845,0 259.999742,0 C336.2155,0 398,61.7848997 398,138 Z" id="Stroke-9" stroke="#006600" opacity="0.600000024"></path>
                    <path d="M429,138 C429,214.2151 367.2151,276 290.999485,276 C214.7849,276 153,214.2151 153,138 C153,61.7848997 214.7849,0 290.999485,0 C367.2151,0 429,61.7848997 429,138 Z" id="Stroke-11" stroke="#008000" opacity="0.699999988"></path>
                    <path d="M460,138 C460,214.2151 398.2155,276 321.999742,276 C245.7845,276 184,214.2151 184,138 C184,61.7848997 245.7845,0 321.999742,0 C398.2155,0 460,61.7848997 460,138 Z" id="Stroke-13" stroke="#009900" opacity="0.699999988"></path>
                    <path d="M490,138 C490,214.2151 428.2155,276 351.999742,276 C275.7845,276 214,214.2151 214,138 C214,61.7848997 275.7845,0 351.999742,0 C428.2155,0 490,61.7848997 490,138 Z" id="Stroke-15" stroke="#00B300" opacity="0.800000012"></path>
                    <path d="M520,138 C520,214.2151 458.2155,276 381.999742,276 C305.7845,276 244,214.2151 244,138 C244,61.7848997 305.7845,0 381.999742,0 C458.2155,0 520,61.7848997 520,138 Z" id="Stroke-17" stroke="#00CC00"></path>
                    <path d="M552,138 C552,214.2151 490.2155,276 413.999742,276 C337.7845,276 276,214.2151 276,138 C276,61.7848997 337.7845,0 413.999742,0 C490.2155,0 552,61.7848997 552,138 Z" id="Stroke-19" stroke="#00E600"></path>
                </g>
            </g>
        </g>
    </g>
</svg>