<?xml version="1.0" encoding="UTF-8"?>
<svg width="555px" height="331px" viewBox="0 0 555 331" version="1.1" xmlns="http://www.w3.org/2000/svg" xmlns:xlink="http://www.w3.org/1999/xlink">
    <title>ill experience</title>
    <g id="Homepage" stroke="none" stroke-width="1" fill="none" fill-rule="evenodd">
        <g id="Publisher-2021-" transform="translate(-734.000000, -1674.000000)" stroke="#0058FE">
            <g id="Group-2" transform="translate(150.000000, 1631.000000)">
                <g id="ill-experience" transform="translate(861.426861, 208.500000) scale(1, -1) rotate(-90.000000) translate(-861.426861, -208.500000) translate(696.926861, -67.926861)">
                    <line x1="281" y1="530.353721" x2="216" y2="530.353721" id="Stroke-1"></line>
                    <line x1="168" y1="530.353721" x2="103" y2="530.353721" id="Stroke-2"></line>
                    <line x1="281" y1="417.353721" x2="216" y2="417.353721" id="Stroke-3"></line>
                    <line x1="168" y1="417.353721" x2="103" y2="417.353721" id="Stroke-4"></line>
                    <line x1="281" y1="305.353721" x2="216" y2="305.353721" id="Stroke-5"></line>
                    <line x1="225" y1="249.353721" x2="160" y2="249.353721" id="Stroke-6"></line>
                    <line x1="113" y1="361.353721" x2="48" y2="361.353721" id="Stroke-7"></line>
                    <line x1="304.5" y1="281.853721" x2="304.5" y2="216.853721" id="Stroke-8"></line>
                    <line x1="304.5" y1="393.853721" x2="304.5" y2="328.853721" id="Stroke-9"></line>
                    <line x1="304.5" y1="505.853721" x2="304.5" y2="440.853721" id="Stroke-10"></line>
                    <line x1="192.5" y1="393.853721" x2="192.5" y2="328.853721" id="Stroke-11"></line>
                    <line x1="192.5" y1="505.853721" x2="192.5" y2="440.853721" id="Stroke-12"></line>
                    <line x1="80.5" y1="505.853721" x2="80.5" y2="440.853721" id="Stroke-13"></line>
                    <g id="Group-402">
                        <path d="M322.057549,545.91631 C317.768501,550.202752 311.842498,552.853472 305.296549,552.853472" id="Stroke-14"></path>
                        <path d="M329,529.168118 C329,522.627722 326.347283,516.706181 322.057611,512.419739" id="Stroke-16"></path>
                        <path d="M288.535924,512.419926 C284.246252,516.706368 281.593535,522.627286 281.593535,529.168305" id="Stroke-18"></path>
                        <path d="M329,529.168118 C329,535.708514 326.347283,541.630679 322.057611,545.916497" id="Stroke-20"></path>
                        <path d="M281.593472,529.168118 C281.593472,535.708514 284.246189,541.630679 288.535861,545.916497" id="Stroke-22"></path>
                        <path d="M322.057549,512.419926 C317.768501,508.133484 311.842498,505.482765 305.296549,505.482765" id="Stroke-24"></path>
                        <path d="M288.535924,512.419926 C292.825596,508.133484 298.750975,505.482765 305.296924,505.482765" id="Stroke-26"></path>
                        <path d="M288.535924,545.91631 C292.825596,550.202752 298.750975,552.853472 305.296924,552.853472" id="Stroke-28"></path>
                        <path d="M175.9988,546.076514 C171.612359,541.778218 168.887846,535.792421 168.887846,529.167806" id="Stroke-30"></path>
                        <path d="M175.9988,512.259723 C171.612359,516.558642 168.887846,522.543815 168.887846,529.16843" id="Stroke-32"></path>
                        <path d="M192.919937,552.845611 C199.417813,552.756401 205.282633,550.05827 209.512371,545.748121" id="Stroke-34"></path>
                        <path d="M192.919937,505.490625 C199.417813,505.579835 205.282633,508.277966 209.512371,512.588115" id="Stroke-36"></path>
                        <path d="M192.919937,505.490625 C192.810057,505.489377 192.701426,505.482515 192.591547,505.482515 C186.129256,505.482515 180.274425,508.069602 175.998488,512.259972" id="Stroke-38"></path>
                        <path d="M209.512496,545.748184 C213.706023,541.475466 216.294436,535.625043 216.294436,529.168243" id="Stroke-40"></path>
                        <path d="M192.919937,552.845611 C192.810057,552.846859 192.701426,552.853721 192.591547,552.853721 C186.129256,552.853721 180.274425,550.266634 175.998488,546.076264" id="Stroke-42"></path>
                        <path d="M209.512496,512.588115 C213.706023,516.860832 216.294436,522.711255 216.294436,529.168056" id="Stroke-44"></path>
                        <path d="M80.5431369,552.837127 C80.3240021,552.843365 80.1067403,552.853347 79.8857326,552.853347 C73.5077249,552.853347 67.7221927,550.331763 63.4618633,546.236842" id="Stroke-46"></path>
                        <path d="M80.5431369,505.499172 C86.9929409,505.675096 92.7965783,508.422511 96.9676305,512.756366" id="Stroke-48"></path>
                        <path d="M96.9673807,545.579995 C101.065388,541.322874 103.589496,535.541698 103.589496,529.167869" id="Stroke-50"></path>
                        <path d="M80.5431369,505.499172 C80.3240021,505.492933 80.1067403,505.482952 79.8857326,505.482952 C73.5077249,505.482952 67.7221927,508.005159 63.4618633,512.099457" id="Stroke-52"></path>
                        <path d="M63.461676,512.099519 C58.9772174,516.40842 56.182781,522.460344 56.182781,529.167931" id="Stroke-54"></path>
                        <path d="M63.461676,546.236779 C58.9772174,541.927879 56.182781,535.875954 56.182781,529.168368" id="Stroke-56"></path>
                        <path d="M80.5431369,552.837127 C86.9929409,552.661202 92.7965783,549.913787 96.9676305,545.579933" id="Stroke-58"></path>
                        <path d="M96.9673807,512.756241 C101.065388,517.013363 103.589496,522.794538 103.589496,529.168368" id="Stroke-60"></path>
                        <path d="M266.18986,455.953427 C261.92953,451.85913 256.143998,449.336922 249.765366,449.336922 C243.052725,449.336922 236.99624,452.129255 232.684093,456.610337" id="Stroke-62"></path>
                        <path d="M266.18986,490.090688 C270.674318,485.781787 273.468755,479.729862 273.468755,473.022276 C273.468755,466.314689 270.674318,460.262765 266.18986,455.95324" id="Stroke-64"></path>
                        <path d="M232.684093,456.610149 C228.586085,460.867271 226.062602,466.648447 226.062602,473.022276 C226.062602,479.395481 228.586085,485.176657 232.684093,489.434402" id="Stroke-66"></path>
                        <path d="M266.18986,490.090688 C261.92953,494.185609 256.143998,496.707193 249.765366,496.707193 C243.052725,496.707193 236.99624,493.91486 232.684093,489.434402" id="Stroke-68"></path>
                        <path d="M120.13904,456.442023 C115.945512,460.714741 113.3571,466.565163 113.3571,473.021964 C113.3571,479.479388 115.945512,485.329811 120.13904,489.601905" id="Stroke-70"></path>
                        <path d="M153.652673,456.113631 C149.376736,451.923261 143.521905,449.336798 137.060239,449.336798 C130.431256,449.336798 124.440949,452.058635 120.13879,456.441774" id="Stroke-72"></path>
                        <path d="M153.652673,489.930422 C149.376736,494.120792 143.521905,496.707255 137.060239,496.707255 C130.431256,496.707255 124.440949,493.985417 120.13879,489.602279" id="Stroke-74"></path>
                        <path d="M153.652673,489.930422 C158.039114,485.632127 160.763627,479.646329 160.763627,473.021714 C160.763627,466.397723 158.039114,460.41255 153.652673,456.113631" id="Stroke-76"></path>
                        <path d="M7.5939871,456.273834 C3.30431493,460.560277 0.651598143,466.481194 0.651598143,473.022214 C0.651598143,479.562609 3.30431493,485.48415 7.5939871,489.769969" id="Stroke-78"></path>
                        <path d="M41.1155494,489.770218 C45.4052216,485.4844 48.0579384,479.562859 48.0579384,473.021839 C48.0579384,466.481443 45.4052216,460.560526 41.1155494,456.274084" id="Stroke-80"></path>
                        <path d="M41.1155494,456.273834 C36.8265016,451.987392 30.9004983,449.336673 24.3545498,449.336673 C17.8092255,449.336673 11.8838466,451.987392 7.5941744,456.273834" id="Stroke-82"></path>
                        <path d="M41.1155494,489.770218 C36.8265016,494.056661 30.9004983,496.70738 24.3545498,496.70738 C17.8092255,496.70738 11.8838466,494.056661 7.5941744,489.770218" id="Stroke-84"></path>
                        <path d="M322.057549,400.127743 C317.768501,395.8413 311.842498,393.190581 305.296549,393.190581" id="Stroke-86"></path>
                        <path d="M288.535924,400.127743 C292.825596,395.8413 298.750975,393.190581 305.296924,393.190581" id="Stroke-88"></path>
                        <path d="M281.593472,416.875935 C281.593472,423.41633 284.246189,429.338495 288.535861,433.624314" id="Stroke-90"></path>
                        <path d="M305.296736,440.561351 C311.84206,440.561351 317.768688,437.910631 322.057736,433.624189" id="Stroke-92"></path>
                        <path d="M329,416.875935 C329,423.41633 326.347283,429.338495 322.057611,433.624314" id="Stroke-94"></path>
                        <path d="M329,416.875935 C329,410.335539 326.347283,404.413998 322.057611,400.127555" id="Stroke-96"></path>
                        <path d="M288.535924,433.624127 C292.825596,437.910569 298.750975,440.561288 305.296924,440.561288" id="Stroke-98"></path>
                        <path d="M281.593472,416.875935 C281.593472,410.335539 284.246189,404.413998 288.535861,400.127555" id="Stroke-100"></path>
                        <path d="M209.512496,433.456 C213.706023,429.183283 216.294436,423.33286 216.294436,416.876059" id="Stroke-102"></path>
                        <path d="M192.919937,440.553428 C199.417813,440.464218 205.282633,437.766086 209.512371,433.455938" id="Stroke-104"></path>
                        <path d="M192.919937,440.553428 C192.810057,440.554675 192.701426,440.561538 192.591547,440.561538 C186.129256,440.561538 180.274425,437.974451 175.998488,433.784081" id="Stroke-106"></path>
                        <path d="M168.888096,416.875935 C168.888096,423.499926 171.611984,429.486347 175.99905,433.784642" id="Stroke-108"></path>
                        <path d="M209.512496,400.295931 C205.282758,395.985783 199.417938,393.287651 192.920061,393.198442" id="Stroke-110"></path>
                        <path d="M216.294561,416.875935 C216.294561,410.41851 213.706148,404.568088 209.512621,400.295994" id="Stroke-112"></path>
                        <path d="M175.9988,399.967539 C180.274737,395.777169 186.129568,393.190706 192.591234,393.190706 C192.701738,393.190706 192.810369,393.196944 192.920249,393.198192" id="Stroke-114"></path>
                        <path d="M168.888096,416.875935 C168.888096,410.251944 171.611984,404.266146 175.99905,399.967227" id="Stroke-116"></path>
                        <path d="M80.5431369,440.544943 C86.9929409,440.369019 92.7965783,437.621604 96.9676305,433.287749" id="Stroke-118"></path>
                        <path d="M63.461676,399.807336 C67.7220054,395.713038 73.5081619,393.190831 79.8861696,393.190831 C80.106553,393.190831 80.3244391,393.200812 80.5429496,393.207051" id="Stroke-120"></path>
                        <path d="M56.1826561,416.875935 C56.1826561,423.583521 58.9777169,429.635446 63.4615512,433.944347" id="Stroke-122"></path>
                        <path d="M56.1826561,416.875935 C56.1826561,410.168348 58.9777169,404.116423 63.4615512,399.807523" id="Stroke-124"></path>
                        <path d="M80.5431369,440.544943 C80.3240021,440.551182 80.1067403,440.561163 79.8857326,440.561163 C73.5077249,440.561163 67.7221927,438.03958 63.4618633,433.944658" id="Stroke-126"></path>
                        <path d="M103.589808,416.875935 C103.589808,410.502106 101.0657,404.721553 96.9676929,400.463808" id="Stroke-128"></path>
                        <path d="M96.9673807,433.287812 C101.065388,429.03069 103.589496,423.249514 103.589496,416.875685" id="Stroke-130"></path>
                        <path d="M96.9673807,400.464058 C92.7963285,396.130203 86.9926911,393.382788 80.5428872,393.206863" id="Stroke-132"></path>
                        <path d="M266.18986,377.798504 C261.92953,381.893426 256.143998,384.415009 249.765366,384.415009 C243.052725,384.415009 236.99624,381.622677 232.684093,377.142219" id="Stroke-134"></path>
                        <path d="M266.18986,343.661244 C261.92953,339.566946 256.143998,337.044739 249.765366,337.044739 C243.052725,337.044739 236.99624,339.837071 232.684093,344.318153" id="Stroke-136"></path>
                        <path d="M266.18986,377.798504 C270.674318,373.489604 273.468755,367.437679 273.468755,360.730092 C273.468755,354.022506 270.674318,347.970581 266.18986,343.661057" id="Stroke-138"></path>
                        <path d="M232.684093,344.317966 C228.586085,348.575087 226.062602,354.356263 226.062602,360.730092 C226.062602,367.103298 228.586085,372.884474 232.684093,377.142219" id="Stroke-140"></path>
                        <path d="M153.652673,377.638238 C158.039114,373.339943 160.763627,367.354146 160.763627,360.729531 C160.763627,354.10554 158.039114,348.120367 153.652673,343.821447" id="Stroke-142"></path>
                        <path d="M153.652673,343.821447 C149.376736,339.631077 143.521905,337.044614 137.060239,337.044614 C130.431256,337.044614 124.440949,339.766452 120.13879,344.14959" id="Stroke-144"></path>
                        <path d="M120.13904,344.14984 C115.945512,348.422557 113.3571,354.27298 113.3571,360.729781 C113.3571,367.187205 115.945512,373.037628 120.13904,377.309721" id="Stroke-146"></path>
                        <path d="M153.652673,377.638238 C149.376736,381.828608 143.521905,384.415072 137.060239,384.415072 C130.431256,384.415072 124.440949,381.693234 120.13879,377.310096" id="Stroke-148"></path>
                        <path d="M281.593472,304.583751 C281.593472,311.124147 284.246189,317.046312 288.535861,321.33213" id="Stroke-150"></path>
                        <path d="M322.057549,321.331943 C317.768501,325.618385 311.842498,328.269105 305.296549,328.269105" id="Stroke-152"></path>
                        <path d="M322.057549,287.835559 C317.768501,283.549117 311.842498,280.898398 305.296549,280.898398" id="Stroke-154"></path>
                        <path d="M329,304.583751 C329,298.043355 326.347283,292.121814 322.057611,287.835372" id="Stroke-156"></path>
                        <path d="M288.535924,287.835559 C292.825596,283.549117 298.750975,280.898398 305.296924,280.898398" id="Stroke-158"></path>
                        <path d="M281.593472,304.583751 C281.593472,298.043355 284.246189,292.121814 288.535861,287.835372" id="Stroke-160"></path>
                        <path d="M329,304.583751 C329,311.124147 326.347283,317.046312 322.057611,321.33213" id="Stroke-162"></path>
                        <path d="M288.535924,321.331943 C292.825596,325.618385 298.750975,328.269105 305.296924,328.269105" id="Stroke-164"></path>
                        <path d="M216.294561,304.583751 C216.294561,311.041176 213.706148,316.891598 209.512621,321.163692" id="Stroke-166"></path>
                        <path d="M209.512496,288.003748 C205.282758,283.6936 199.417938,280.995468 192.920061,280.906258" id="Stroke-168"></path>
                        <path d="M192.919937,328.261244 C199.417813,328.172034 205.282633,325.473903 209.512371,321.163755" id="Stroke-170"></path>
                        <path d="M216.294561,304.583751 C216.294561,298.126327 213.706148,292.275904 209.512621,288.00381" id="Stroke-172"></path>
                        <path d="M175.9988,321.492147 C180.274737,325.682517 186.129568,328.26898 192.591234,328.26898 C192.701738,328.26898 192.810369,328.262742 192.920249,328.261494" id="Stroke-174"></path>
                        <path d="M175.9988,287.675356 C171.612359,291.974275 168.887846,297.959448 168.887846,304.584063" id="Stroke-176"></path>
                        <path d="M168.888096,304.583751 C168.888096,311.207742 171.611984,317.194163 175.99905,321.492459" id="Stroke-178"></path>
                        <path d="M175.9988,287.675356 C180.274737,283.484986 186.129568,280.898522 192.591234,280.898522 C192.701738,280.898522 192.810369,280.904761 192.920249,280.906009" id="Stroke-180"></path>
                        <path d="M266.18986,265.506321 C261.92953,269.601243 256.143998,272.122826 249.765366,272.122826 C243.052725,272.122826 236.99624,269.330494 232.684093,264.850036" id="Stroke-182"></path>
                        <path d="M232.684093,232.025783 C228.586085,236.282904 226.062602,242.06408 226.062602,248.437909 C226.062602,254.811114 228.586085,260.59229 232.684093,264.850036" id="Stroke-184"></path>
                        <path d="M266.18986,231.368998 C261.92953,227.2747 256.143998,224.752493 249.765366,224.752493 C243.052725,224.752493 236.99624,227.544825 232.684093,232.025907" id="Stroke-186"></path>
                        <path d="M266.18986,265.506321 C270.674318,261.19742 273.468755,255.145496 273.468755,248.437909 C273.468755,241.730323 270.674318,235.678398 266.18986,231.368873" id="Stroke-188"></path>
                        <path d="M153.332025,265.506321 C149.071696,269.601243 143.285539,272.122826 136.907531,272.122826 C130.194266,272.122826 124.138405,269.330494 119.825633,264.850036" id="Stroke-190"></path>
                        <path d="M119.825633,232.025783 C115.72825,236.282904 113.204143,242.06408 113.204143,248.437909 C113.204143,254.811114 115.72825,260.59229 119.825633,264.850036" id="Stroke-192"></path>
                        <path d="M153.332025,231.368998 C149.071696,227.2747 143.285539,224.752493 136.907531,224.752493 C130.19489,224.752493 124.138405,227.544825 119.825633,232.025907" id="Stroke-194"></path>
                        <path d="M153.332025,265.506321 C157.816483,261.19742 160.61092,255.145496 160.61092,248.437909 C160.61092,241.730323 157.816483,235.678398 153.332025,231.368873" id="Stroke-196"></path>
                        <path d="M95.4499194,321.653037 C91.1889657,325.747334 85.4034335,328.269541 79.0248015,328.269541 C72.3121606,328.269541 66.2562998,325.477209 61.9435279,320.996127" id="Stroke-198"></path>
                        <path d="M61.9435279,288.171874 C57.8461449,292.42962 55.3220371,298.210796 55.3220371,304.584625 C55.3220371,310.957206 57.8461449,316.739006 61.9435279,320.996127" id="Stroke-200"></path>
                        <path d="M95.4499194,287.515152 C91.1889657,283.420854 85.4034335,280.898647 79.0248015,280.898647 C72.3121606,280.898647 66.2562998,283.691603 61.9435279,288.172061" id="Stroke-202"></path>
                        <path d="M95.4499194,321.653037 C99.9337537,317.343512 102.728814,311.292211 102.728814,304.584625 C102.728814,297.877038 99.9337537,291.825113 95.4499194,287.514965" id="Stroke-204"></path>
                        <line x1="112.364938" y1="248.331044" x2="47.0665253" y2="248.331044" id="Stroke-206"></line>
                        <path d="M40.1278822,265.506321 C35.8675529,269.601243 30.0813963,272.122826 23.7033886,272.122826 C16.9907478,272.122826 10.9342626,269.330494 6.62149076,264.850036" id="Stroke-208"></path>
                        <path d="M6.62211508,232.025783 C2.52410778,236.282904 0,242.06408 0,248.437909 C0,254.811114 2.52410778,260.59229 6.62149076,264.850036" id="Stroke-210"></path>
                        <path d="M40.1278822,231.368998 C35.8675529,227.2747 30.0813963,224.752493 23.7033886,224.752493 C16.9907478,224.752493 10.9342626,227.544825 6.62211508,232.025907" id="Stroke-212"></path>
                        <path d="M40.1278822,265.506321 C44.6123408,261.19742 47.4067773,255.145496 47.4067773,248.437909 C47.4067773,241.730323 44.6123408,235.678398 40.1278822,231.368873" id="Stroke-214"></path>
                        <path d="M281.593472,192.291568 C281.593472,198.831964 284.246189,204.754129 288.535861,209.039947" id="Stroke-216"></path>
                        <path d="M288.535924,209.03976 C292.825596,213.326202 298.750975,215.976921 305.296924,215.976921" id="Stroke-218"></path>
                        <path d="M329,192.291568 C329,198.831964 326.347283,204.754129 322.057611,209.039947" id="Stroke-220"></path>
                        <path d="M322.057549,209.03976 C317.768501,213.326202 311.842498,215.976921 305.296549,215.976921" id="Stroke-222"></path>
                        <path d="M329,192.291568 C329,185.751172 326.347283,179.829631 322.057611,175.543189" id="Stroke-224"></path>
                        <path d="M322.057549,175.543376 C317.768501,171.256934 311.842498,168.606214 305.296549,168.606214" id="Stroke-226"></path>
                        <path d="M288.535924,175.543376 C292.825596,171.256934 298.750975,168.606214 305.296924,168.606214" id="Stroke-228"></path>
                        <path d="M281.593472,192.291568 C281.593472,185.751172 284.246189,179.829631 288.535861,175.543189" id="Stroke-230"></path>
                        <path d="M169.216673,192.291568 C169.216673,198.831964 171.86939,204.754129 176.159062,209.039947" id="Stroke-232"></path>
                        <path d="M176.159124,209.03976 C180.448796,213.326202 186.374175,215.976921 192.920124,215.976921" id="Stroke-234"></path>
                        <path d="M216.6232,192.291568 C216.6232,198.831964 213.970484,204.754129 209.680811,209.039947" id="Stroke-236"></path>
                        <path d="M209.680749,209.03976 C205.391701,213.326202 199.465698,215.976921 192.919749,215.976921" id="Stroke-238"></path>
                        <path d="M216.6232,192.291568 C216.6232,185.751172 213.970484,179.829631 209.680811,175.543189" id="Stroke-240"></path>
                        <path d="M209.680749,175.543376 C205.391701,171.256934 199.465698,168.606214 192.919749,168.606214" id="Stroke-242"></path>
                        <path d="M176.159124,175.543376 C180.448796,171.256934 186.374175,168.606214 192.920124,168.606214" id="Stroke-244"></path>
                        <path d="M169.216673,192.291568 C169.216673,185.751172 171.86939,179.829631 176.159062,175.543189" id="Stroke-246"></path>
                        <line x1="153.652673" y1="377.638238" x2="175.9988" y2="399.967539" id="Stroke-248"></line>
                        <line x1="40.1278822" y1="265.766465" x2="62.4740088" y2="288.095141" id="Stroke-250"></line>
                        <path d="M40.9472964,377.638238 C45.3337375,373.339943 48.0582505,367.354146 48.0582505,360.729531 C48.0582505,354.10554 45.3337375,348.120367 40.9472964,343.821447" id="Stroke-252"></path>
                        <path d="M40.9472964,343.821447 C36.6713592,339.631077 30.8165279,337.044614 24.3548619,337.044614 C17.7258794,337.044614 11.7355716,339.766452 7.43341314,344.14959" id="Stroke-254"></path>
                        <path d="M7.43360044,344.14984 C3.24007286,348.422557 0.651660575,354.27298 0.651660575,360.729781 C0.651660575,367.187205 3.24007286,373.037628 7.43360044,377.309721" id="Stroke-256"></path>
                        <path d="M40.9472964,377.638238 C36.6713592,381.828608 30.8165279,384.415072 24.3548619,384.415072 C17.7258794,384.415072 11.7355716,381.693234 7.43341314,377.310096" id="Stroke-258"></path>
                        <line x1="40.9472964" y1="377.638238" x2="63.293423" y2="399.967539" id="Stroke-260"></line>
                        <line x1="209.512496" y1="433.456" x2="232.683968" y2="456.610025" id="Stroke-262"></line>
                        <line x1="266.18986" y1="490.090688" x2="288.535986" y2="512.419988" id="Stroke-264"></line>
                        <line x1="266.18986" y1="377.798504" x2="288.535986" y2="400.127805" id="Stroke-266"></line>
                        <line x1="209.512496" y1="321.163817" x2="232.683968" y2="344.317841" id="Stroke-268"></line>
                        <line x1="96.9673807" y1="433.287812" x2="120.138853" y2="456.441836" id="Stroke-270"></line>
                        <line x1="153.652673" y1="489.930422" x2="175.9988" y2="512.259723" id="Stroke-272"></line>
                        <line x1="266.18986" y1="265.506321" x2="288.535986" y2="287.835622" id="Stroke-274"></line>
                        <line x1="41.1155494" y1="489.770218" x2="63.461676" y2="512.099519" id="Stroke-276"></line>
                        <line x1="41.1155494" y1="456.273834" x2="63.461676" y2="433.944534" id="Stroke-278"></line>
                        <line x1="266.18986" y1="231.368998" x2="288.535986" y2="209.039697" id="Stroke-280"></line>
                        <line x1="153.660602" y1="231.368998" x2="176.006729" y2="209.039697" id="Stroke-282"></line>
                        <line x1="209.512496" y1="288.003748" x2="232.683968" y2="264.850347" id="Stroke-284"></line>
                        <line x1="96.9673807" y1="400.464058" x2="120.138853" y2="377.310033" id="Stroke-286"></line>
                        <line x1="153.652673" y1="343.821447" x2="175.9988" y2="321.492147" id="Stroke-288"></line>
                        <line x1="96.9673807" y1="512.756241" x2="120.138853" y2="489.602217" id="Stroke-290"></line>
                        <line x1="266.18986" y1="343.661244" x2="288.535986" y2="321.331943" id="Stroke-292"></line>
                        <line x1="209.512496" y1="400.295931" x2="232.683968" y2="377.142531" id="Stroke-294"></line>
                        <line x1="281.593472" y1="79.8318196" x2="216.294436" y2="79.8318196" id="Stroke-296"></line>
                        <line x1="305.296736" y1="168.438026" x2="305.296736" y2="103.517547" id="Stroke-300"></line>
                        <line x1="192.919937" y1="168.44651" x2="192.919937" y2="103.508564" id="Stroke-302"></line>
                        <path d="M266.18986,153.046573 C261.92953,157.14087 256.143998,159.663078 249.765366,159.663078 C243.052725,159.663078 236.99624,156.870745 232.684093,152.389663" id="Stroke-304"></path>
                        <path d="M266.18986,118.908688 C261.92953,114.814391 256.143998,112.292183 249.765366,112.292183 C243.052725,112.292183 236.99624,115.08514 232.684093,119.565598" id="Stroke-306"></path>
                        <path d="M266.18986,153.046573 C270.674318,148.737048 273.468755,142.685747 273.468755,135.978161 C273.468755,129.270574 270.674318,123.21865 266.18986,118.908501" id="Stroke-308"></path>
                        <path d="M232.684093,119.565411 C228.586085,123.823156 226.062602,129.604332 226.062602,135.978161 C226.062602,142.350742 228.586085,148.132542 232.684093,152.389663" id="Stroke-310"></path>
                        <path d="M281.593472,79.8318196 C281.593472,86.3722154 284.246189,92.2937565 288.535861,96.5801987" id="Stroke-312"></path>
                        <path d="M322.057549,96.5800116 C317.768501,100.86583 311.842498,103.517173 305.296549,103.517173" id="Stroke-314"></path>
                        <path d="M322.057549,63.0836899 C317.768501,58.7972478 311.842498,56.1459045 305.296549,56.1459045" id="Stroke-316"></path>
                        <path d="M329,79.8318196 C329,73.2914237 326.347283,67.3692587 322.057611,63.0834404" id="Stroke-318"></path>
                        <path d="M288.535924,63.0836899 C292.825596,58.7972478 298.750975,56.1459045 305.296924,56.1459045" id="Stroke-320"></path>
                        <path d="M281.593472,79.8318196 C281.593472,73.2914237 284.246189,67.3692587 288.535861,63.0834404" id="Stroke-322"></path>
                        <path d="M329,79.8318196 C329,86.3722154 326.347283,92.2937565 322.057611,96.5801987" id="Stroke-324"></path>
                        <path d="M288.535924,96.5800116 C292.825596,100.86583 298.750975,103.517173 305.296924,103.517173" id="Stroke-326"></path>
                        <path d="M216.294561,79.8318196 C216.294561,86.289244 213.706148,92.1396667 209.512621,96.4117604" id="Stroke-328"></path>
                        <path d="M209.512496,63.2511925 C205.282758,58.9410441 199.417938,56.2429125 192.920061,56.1543265" id="Stroke-330"></path>
                        <path d="M192.919937,103.508751 C199.417813,103.420165 205.282633,100.722034 209.512371,96.4118852" id="Stroke-332"></path>
                        <path d="M216.294561,79.8318196 C216.294561,73.3743952 213.706148,67.5239724 209.512621,63.2512548" id="Stroke-334"></path>
                        <path d="M175.9988,96.7402775 C180.274737,100.930647 186.129568,103.517111 192.591234,103.517111 C192.701738,103.517111 192.810369,103.510872 192.920249,103.509001" id="Stroke-336"></path>
                        <path d="M175.9988,62.9228626 C171.612359,67.2217817 168.887846,73.2075789 168.887846,79.83157" id="Stroke-338"></path>
                        <path d="M168.888096,79.8318196 C168.888096,86.4558107 171.611984,92.4416079 175.99905,96.740527" id="Stroke-340"></path>
                        <path d="M175.9988,62.9228626 C180.274737,58.7331165 186.129568,56.1460293 192.591234,56.1460293 C192.701738,56.1460293 192.810369,56.1528916 192.920249,56.1541393" id="Stroke-342"></path>
                        <path d="M266.18986,40.7543893 C261.92953,44.8486871 256.143998,47.3708943 249.765366,47.3708943 C243.052725,47.3708943 236.99624,44.578562 232.684093,40.09748" id="Stroke-344"></path>
                        <path d="M232.684093,7.2732271 C228.586085,11.5309724 226.062602,17.3121483 226.062602,23.6859774 C226.062602,30.0585588 228.586085,35.8403586 232.684093,40.09748" id="Stroke-346"></path>
                        <path d="M266.18986,6.61650498 C261.92953,2.52220721 256.143998,0 249.765366,0 C243.052725,0 236.99624,2.79295614 232.684093,7.27341426" id="Stroke-348"></path>
                        <path d="M266.18986,40.7543893 C270.674318,36.4448648 273.468755,30.3935638 273.468755,23.6859774 C273.468755,16.978391 270.674318,10.9264661 266.18986,6.61631783" id="Stroke-350"></path>
                        <line x1="266.18986" y1="153.046573" x2="288.535986" y2="175.375873" id="Stroke-368"></line>
                        <path d="M153.660602,153.046573 C149.399648,157.14087 143.614116,159.663078 137.235484,159.663078 C130.522843,159.663078 124.466983,156.870745 120.154211,152.389663" id="Stroke-370"></path>
                        <path d="M153.660602,118.908688 C149.399648,114.814391 143.614116,112.292183 137.235484,112.292183 C130.522843,112.292183 124.466983,115.08514 120.154211,119.565598" id="Stroke-372"></path>
                        <path d="M153.660602,153.046573 C158.145061,148.737048 160.939497,142.685747 160.939497,135.978161 C160.939497,129.270574 158.145061,123.21865 153.660602,118.908501" id="Stroke-374"></path>
                        <path d="M120.154273,119.565411 C116.05689,123.823156 113.532782,129.604332 113.532782,135.978161 C113.532782,142.350742 116.05689,148.132542 120.154273,152.389663" id="Stroke-376"></path>
                        <line x1="153.660602" y1="153.046573" x2="176.006729" y2="175.375873" id="Stroke-378"></line>
                        <line x1="209.711216" y1="209.482628" x2="232.057342" y2="231.811928" id="Stroke-380"></line>
                        <line x1="209.512496" y1="96.4118852" x2="232.683968" y2="119.565286" id="Stroke-382"></line>
                        <line x1="266.18986" y1="40.7543893" x2="288.535986" y2="63.0836899" id="Stroke-384"></line>
                        <line x1="209.512496" y1="63.2511925" x2="232.683968" y2="40.0977919" id="Stroke-388"></line>
                        <line x1="153.652673" y1="119.068954" x2="175.9988" y2="96.7402775" id="Stroke-390"></line>
                        <line x1="266.18986" y1="118.908688" x2="288.535986" y2="96.5800116" id="Stroke-392"></line>
                        <line x1="209.512496" y1="175.543376" x2="232.683968" y2="152.389975" id="Stroke-394"></line>
                        <line x1="153.652673" y1="456.113631" x2="175.9988" y2="433.78433" id="Stroke-396"></line>
                        <line x1="209.512496" y1="512.588115" x2="232.683968" y2="489.434714" id="Stroke-398"></line>
                        <line x1="266.18986" y1="455.953427" x2="288.535986" y2="433.624127" id="Stroke-400"></line>
                    </g>
                </g>
            </g>
        </g>
    </g>
</svg>