<?xml version="1.0" encoding="UTF-8"?>
<svg width="556px" height="354px" viewBox="0 0 556 354" version="1.1" xmlns="http://www.w3.org/2000/svg" xmlns:xlink="http://www.w3.org/1999/xlink">
    <title>ill Activate</title>
    <g id="Homepage" stroke="none" stroke-width="1" fill="none" fill-rule="evenodd">
        <g id="Publisher-2021-" transform="translate(-735.000000, -2954.000000)">
            <g id="Group-7" transform="translate(150.000000, 2890.000000)">
                <g id="ill-Activate" transform="translate(585.000000, 65.000000)">
                    <line x1="0" y1="352.5" x2="554.544335" y2="352.5" id="Stroke-1" stroke="#000000" opacity="0.200000003"></line>
                    <path d="M1,17.0002347 C20.1227333,-5.66674491 51.1273327,-5.66674491 70.250066,17.0002347 C89.3727993,39.6665884 120.377399,39.6665884 139.500132,17.0002347 C158.622865,-5.66674491 189.627465,-5.66674491 208.750198,17.0002347 C227.872931,39.6665884 258.877531,39.6665884 278.000264,17.0002347 C297.122997,-5.66674491 328.127597,-5.66674491 347.25033,17.0002347 C366.372535,39.6665884 397.377135,39.6665884 416.499868,17.0002347 C435.622601,-5.66674491 466.627201,-5.66674491 485.749934,17.0002347 C504.872667,39.6665884 535.877267,39.6665884 555,17.0002347" id="Stroke-4" stroke="#FF3CFE"></path>
                    <path d="M1,65.4997554 C20.1227333,44.8334149 51.1273327,44.8334149 70.250066,65.4997554 C89.3727993,86.1667482 120.377399,86.1667482 139.500132,65.4997554 C158.622865,44.8334149 189.627465,44.8334149 208.750198,65.4997554 C227.872931,86.1667482 258.877531,86.1667482 278.000264,65.4997554 C297.122997,44.8334149 328.127597,44.8334149 347.25033,65.4997554 C366.372535,86.1667482 397.377135,86.1667482 416.499868,65.4997554 C435.622601,44.8334149 466.627201,44.8334149 485.749934,65.4997554 C504.872667,86.1667482 535.877267,86.1667482 555,65.4997554" id="Stroke-6" stroke="#C841E5" opacity="0.900000036"></path>
                    <path d="M1,155.000243 C20.1227333,140.333252 51.1273327,140.333252 70.250066,155.000243 C89.3727993,169.666586 120.377399,169.666586 139.500132,155.000243 C158.622865,140.333252 189.627465,140.333252 208.750198,155.000243 C227.872931,169.666586 258.877531,169.666586 278.000264,155.000243 C297.122997,140.333252 328.127597,140.333252 347.25033,155.000243 C366.372535,169.666586 397.377135,169.666586 416.499868,155.000243 C435.622601,140.333252 466.627201,140.333252 485.749934,155.000243 C504.872667,169.666586 535.877267,169.666586 555,155.000243" id="Stroke-8" stroke="#A537B5" opacity="0.699999988"></path>
                    <path d="M1,236 C20.1227333,226.666667 51.1273327,226.666667 70.250066,236 C89.3727993,245.333333 120.377399,245.333333 139.500132,236 C158.622865,226.666667 189.627465,226.666667 208.750198,236 C227.872931,245.333333 258.877531,245.333333 278.000264,236 C297.122997,226.666667 328.127597,226.666667 347.25033,236 C366.372535,245.333333 397.377135,245.333333 416.499868,236 C435.622601,226.666667 466.627201,226.666667 485.749934,236 C504.872667,245.333333 535.877267,245.333333 555,236" id="Stroke-10" stroke="#701877" opacity="0.5"></path>
                    <path d="M1,318 C20.1227333,315.333333 51.1273327,315.333333 70.250066,318 C89.3727993,320.666667 120.377399,320.666667 139.500132,318 C158.622865,315.333333 189.627465,315.333333 208.750198,318 C227.872931,320.666667 258.877531,320.666667 278.000264,318 C297.122997,315.333333 328.127597,315.333333 347.25033,318 C366.372535,320.666667 397.377135,320.666667 416.499868,318 C435.622601,315.333333 466.627201,315.333333 485.749934,318 C504.872667,320.666667 535.877267,320.666667 555,318" id="Stroke-12" stroke="#340635" opacity="0.300000012"></path>
                    <path d="M1,110.999761 C20.1227333,93.6667464 51.1273327,93.6667464 70.250066,110.999761 C89.3727993,128.333413 120.377399,128.333413 139.500132,110.999761 C158.622865,93.6667464 189.627465,93.6667464 208.750198,110.999761 C227.872931,128.333413 258.877531,128.333413 278.000264,110.999761 C297.122997,93.6667464 328.127597,93.6667464 347.25033,110.999761 C366.372535,128.333413 397.377135,128.333413 416.499868,110.999761 C435.622601,93.6667464 466.627201,93.6667464 485.749934,110.999761 C504.872667,128.333413 535.877267,128.333413 555,110.999761" id="Stroke-14" stroke="#B342C6" opacity="0.800000012"></path>
                    <path d="M1,277.999779 C20.1227333,274.000074 51.1273327,274.000074 70.250066,277.999779 C89.3727993,282.000074 120.377399,282.000074 139.500132,277.999779 C158.622865,274.000074 189.627465,274.000074 208.750198,277.999779 C227.872931,282.000074 258.877531,282.000074 278.000264,277.999779 C297.122997,274.000074 328.127597,274.000074 347.25033,277.999779 C366.372535,282.000074 397.377135,282.000074 416.499868,277.999779 C435.622601,274.000074 466.627201,274.000074 485.749934,277.999779 C504.872667,282.000074 535.877267,282.000074 555,277.999779" id="Stroke-16" stroke="#550E59" opacity="0.400000006"></path>
                    <path d="M1,195 C20.1227333,183 51.1273327,183 70.250066,195 C89.3727993,207 120.377399,207 139.500132,195 C158.622865,183 189.627465,183 208.750198,195 C227.872931,207 258.877531,207 278.000264,195 C297.122997,183 328.127597,183 347.25033,195 C366.372535,207 397.377135,207 416.499868,195 C435.622601,183 466.627201,183 485.749934,195 C504.872667,207 535.877267,207 555,195" id="Stroke-18" stroke="#90299B" opacity="0.600000024"></path>
                </g>
            </g>
        </g>
    </g>
</svg>