<?xml version="1.0" encoding="UTF-8"?> <svg xmlns="http://www.w3.org/2000/svg" width="132" height="132" viewBox="0 0 132 132" fill="none"><g clip-path="url(#clip0)"><path d="M98.2196 66.0373C98.2196 66.0373 98.2196 66.124 98.2196 66.1736L113.555 74.6513C116.571 76.3175 119.701 77.7712 122.921 79.0018C119.486 78.7293 116.037 78.6879 112.597 78.8778L95.0853 79.8694C94.4505 81.1952 93.7232 82.4749 92.9087 83.6992L119.6 104.881C120.769 103.282 121.876 101.621 122.896 99.9235L110.831 90.3426C107.949 87.9644 104.797 85.9303 101.441 84.2818C104.97 84.828 108.547 84.9984 112.112 84.7899L129.848 83.7984C130.412 81.807 130.876 79.7743 131.241 77.7004L115.694 69.1482C112.572 67.4167 109.274 66.0207 105.856 64.9837C109.604 64.919 113.331 64.4199 116.963 63.4964L132 60.0756C131.813 58.0925 131.552 56.1218 131.204 54.1758L97.9211 61.724C98.1174 63.1535 98.2171 64.5945 98.2196 66.0373V66.0373Z" fill="black"></path><path d="M89.252 88.285C88.2342 89.3492 87.141 90.3391 85.9809 91.2472L88.9161 108.488C89.4872 111.873 90.2934 115.216 91.329 118.49C89.4104 115.641 87.2951 112.928 84.9984 110.372L73.307 97.3452C71.8685 97.6709 70.4102 97.9027 68.9414 98.0393V132.037C70.9439 131.95 72.9339 131.777 74.8866 131.517V116.098C74.9522 112.371 74.585 108.648 73.7921 105.005C75.5437 108.113 77.6289 111.022 80.0109 113.681L91.8515 126.881C93.7751 126.055 95.6532 125.15 97.4857 124.167L94.5131 106.715C93.9261 103.206 92.9629 99.7697 91.64 96.4653C94.0032 99.3563 96.6954 101.964 99.6622 104.237L111.727 113.83C113.153 112.458 114.529 111.02 115.856 109.517L89.252 88.285Z" fill="black"></path><path d="M86.1801 41.0255L102.349 34.3325C105.536 33.0244 108.629 31.4962 111.602 29.759C109.247 32.2644 107.065 34.9271 105.073 37.7286L94.9237 51.9821C95.5761 53.3042 96.1331 54.6711 96.5903 56.0722L129.848 48.4745C129.326 46.5534 128.704 44.657 128.008 42.8103L112.958 46.2435C109.296 47.005 105.735 48.1905 102.349 49.7759C104.973 47.3672 107.333 44.6873 109.389 41.7815L119.662 27.3545C118.427 25.6523 117.121 24.0245 115.744 22.4711L99.3514 29.2384C96.0473 30.5863 92.8989 32.2859 89.9611 34.3077C92.264 31.3652 94.2173 28.1668 95.7819 24.7765L102.473 10.9319C100.819 9.84124 99.1027 8.81252 97.349 7.87054L82.5234 38.497C83.7997 39.2542 85.0216 40.0991 86.1801 41.0255V41.0255Z" fill="black"></path><path d="M37.0268 51.9821L26.915 37.7286C24.9246 34.9297 22.7428 32.271 20.3853 29.7714C23.3574 31.5041 26.445 33.0322 29.6264 34.3449L45.7953 41.0255C46.9463 40.1216 48.1553 39.2935 49.4146 38.5466L34.6014 7.87054C32.8477 8.81252 31.1314 9.84124 29.4772 10.9319L36.181 24.7888C37.7401 28.1756 39.6893 31.37 41.9894 34.3077C39.0483 32.2911 35.9006 30.5918 32.599 29.2384L16.2063 22.4711C14.8257 24.0328 13.5197 25.6688 12.2884 27.3545L22.5619 41.7815C24.616 44.6922 26.9805 47.3726 29.614 49.7759C26.2267 48.193 22.6665 47.0076 19.0048 46.2435L3.95524 42.8227C3.25873 44.6735 2.64101 46.5616 2.10205 48.4869L35.3726 56.0598C35.8263 54.6633 36.3792 53.3006 37.0268 51.9821V51.9821Z" fill="black"></path><path d="M58.7054 97.3081L47.014 110.335C44.7147 112.892 42.5953 115.605 40.6709 118.453C41.7079 115.179 42.5142 111.837 43.0838 108.451L46.019 91.2225C44.8649 90.3074 43.7722 89.3178 42.748 88.2602L16.0942 109.479C17.4043 110.967 18.7808 112.4 20.2235 113.78L32.2755 104.199C35.2424 101.927 37.9345 99.3192 40.2978 96.4281C38.9797 99.7342 38.0167 103.17 37.4247 106.678L34.4521 124.129C36.2804 125.109 38.1834 126.013 40.0987 126.831L51.9393 113.631C54.317 110.969 56.4018 108.06 58.1581 104.955C57.3578 108.598 56.9862 112.32 57.0512 116.048V131.43C59.0163 131.69 60.9939 131.864 63.0088 131.95V97.9526C61.5618 97.8316 60.1242 97.6163 58.7054 97.3081V97.3081Z" fill="black"></path><path d="M58.9668 34.7042L63.8174 17.9223C64.777 14.6221 65.5043 11.2592 65.994 7.85803C66.4906 11.2579 67.2178 14.6203 68.1706 17.9223L73.0337 34.7042C74.4744 35.0197 75.8914 35.4338 77.2749 35.9437L92.0632 5.2924C90.2349 4.52395 88.3319 3.81747 86.4663 3.21015L79.7748 17.0794C78.092 20.4108 76.8023 23.9253 75.9316 27.5527C75.6816 24.0049 75.0521 20.4939 74.0536 17.0794L69.0786 0.0743726C68.0421 0.0247952 66.9973 0 65.9443 0C64.8912 0 63.8464 0.0247952 62.81 0.0743726L58.0091 17.0794C56.9895 20.4916 56.3391 24.0027 56.0688 27.5527C55.1981 23.9253 53.9084 20.4108 52.2256 17.0794L45.5715 3.22254C43.6686 3.82987 41.8402 4.53635 39.9746 5.3048L54.7629 35.9561C56.1339 35.4436 57.5385 35.0254 58.9668 34.7042V34.7042Z" fill="black"></path><path d="M15.0371 63.5582C18.6682 64.452 22.3913 64.922 26.1314 64.9588C22.7191 65.9956 19.4257 67.3873 16.3056 69.1109L0.796023 77.6754C1.16915 79.7452 1.62933 81.7655 2.18903 83.761L19.925 84.7526C23.4897 84.9679 27.0673 84.8017 30.5965 84.2568C27.2399 85.9053 24.0883 87.9394 21.2061 90.3176L9.14166 99.8985C10.1615 101.609 11.2684 103.257 12.4376 104.856L39.1286 83.6743C38.3146 82.4431 37.5833 81.1595 36.9396 79.832L19.4524 78.8652C16.0126 78.6681 12.5632 78.7095 9.12921 78.9892C12.3431 77.7541 15.4681 76.3005 18.4822 74.6388L33.8302 66.1734V66.0371C33.8308 64.6111 33.9264 63.1868 34.1163 61.7734L0.796023 54.2376C0.435333 56.1712 0.174126 58.1419 0 60.1374L15.0371 63.5582Z" fill="black"></path></g><defs><clipPath id="clip0"><rect width="132" height="132" fill="white"></rect></clipPath></defs></svg> 